<?xml version="1.0"?>
<svg xmlns="http://www.w3.org/2000/svg" id="_x31__x2C_5" enable-background="new 0 0 24 24" height="512px" viewBox="0 0 24 24" width="512px" class=""><g><path d="m13.861 3.609h-6.144-4.578c-1.417 0-2.564 1.147-2.564 2.564v9.081 2.573c0 1.417 1.147 2.564 2.564 2.564h6.144 4.578c1.417 0 2.564-1.147 2.564-2.564v-9.081-2.573c0-1.417-1.147-2.564-2.564-2.564z" fill="#2196f3" data-original="#2196F3" class="" style="fill:#78D478" data-old_color="#2196f3"/><path d="m11.875 2.125h-.99c-.297-1.035-1.251-1.8-2.385-1.8s-2.088.765-2.385 1.8h-.99c-.369 0-.675.306-.675.675v1.8c0 .864.711 1.575 1.575 1.575h4.95c.864 0 1.575-.711 1.575-1.575v-1.8c0-.369-.306-.675-.675-.675z" fill="#1976d2" data-original="#1976D2" class="active-path" style="fill:#FFF39D" data-old_color="#1976d2"/><path d="m17.5 23.4c-.142 0-.283-.044-.403-.133-.558-.415-5.447-4.141-5.447-7.302 0-1.855 1.514-3.364 3.375-3.364.957 0 1.848.401 2.475 1.074.627-.673 1.518-1.074 2.475-1.074 1.861 0 3.375 1.509 3.375 3.364 0 3.161-4.889 6.888-5.447 7.302-.12.089-.261.133-.403.133z" fill="#f44336" data-original="#F44336" class=""/><path d="m17.5 24c-.157 0-.314-.05-.447-.148-.62-.46-6.053-4.601-6.053-8.114 0-2.061 1.683-3.738 3.75-3.738 1.063 0 2.054.446 2.75 1.194.696-.748 1.687-1.194 2.75-1.194 2.067 0 3.75 1.677 3.75 3.738 0 3.513-5.433 7.653-6.053 8.113-.133.099-.29.149-.447.149zm-2.75-10.5c-1.24 0-2.25 1.004-2.25 2.238 0 2.142 3.275 5.191 5 6.564 1.724-1.374 5-4.427 5-6.564 0-1.234-1.01-2.238-2.25-2.238-.897 0-1.707.527-2.062 1.343-.238.547-1.137.547-1.375 0-.356-.816-1.166-1.343-2.063-1.343z" data-original="#000000" class=""/><path d="m10.36 21h-7.61c-1.517 0-2.75-1.233-2.75-2.75v-12.5c0-1.517 1.233-2.75 2.75-2.75h1.88c.414 0 .75.336.75.75s-.336.75-.75.75h-1.88c-.689 0-1.25.561-1.25 1.25v12.5c0 .689.561 1.25 1.25 1.25h7.61c.414 0 .75.336.75.75s-.336.75-.75.75z" data-original="#000000" class=""/><path d="m16.25 10.69c-.414 0-.75-.336-.75-.75v-4.19c0-.689-.561-1.25-1.25-1.25h-1.87c-.414 0-.75-.336-.75-.75s.336-.75.75-.75h1.87c1.517 0 2.75 1.233 2.75 2.75v4.19c0 .414-.336.75-.75.75z" data-original="#000000" class=""/><path d="m11.25 6.5h-5.5c-.965 0-1.75-.785-1.75-1.75v-2c0-.414.336-.75.75-.75h1.104c.328-1.153 1.389-2 2.646-2s2.318.847 2.646 2h1.104c.414 0 .75.336.75.75v2c0 .965-.785 1.75-1.75 1.75zm-5.75-3v1.25c0 .138.112.25.25.25h5.5c.138 0 .25-.112.25-.25v-1.25h-1c-.414 0-.75-.336-.75-.75 0-.689-.561-1.25-1.25-1.25s-1.25.561-1.25 1.25c0 .414-.336.75-.75.75z" data-original="#000000" class=""/><path d="m13.25 9.5h-9.5c-.414 0-.75-.336-.75-.75s.336-.75.75-.75h9.5c.414 0 .75.336.75.75s-.336.75-.75.75z" data-original="#000000" class=""/><path d="m10.29 12.5h-6.54c-.414 0-.75-.336-.75-.75s.336-.75.75-.75h6.54c.414 0 .75.336.75.75s-.336.75-.75.75z" data-original="#000000" class=""/><path d="m8.84 15.5h-5.09c-.414 0-.75-.336-.75-.75s.336-.75.75-.75h5.09c.414 0 .75.336.75.75s-.336.75-.75.75z" data-original="#000000" class=""/></g> </svg>
