<?xml version="1.0"?>
<svg xmlns="http://www.w3.org/2000/svg" id="Layer_1" enable-background="new 0 0 512 512" height="512px" viewBox="0 0 512 512" width="512px" class=""><g><g><circle cx="256" cy="256" fill="#acebe2" r="96" data-original="#ACEBE2" class="" style="fill:#3FD77B" data-old_color="#acebe2"/><path d="m481.55 231.09-69.27-43.11c-94.21-58.64-218.35-58.64-312.56 0l-69.27 43.11c-19.27 11.99-19.27 37.83 0 49.82l69.27 43.11c94.21 58.64 218.35 58.64 312.56 0l69.27-43.11c19.27-11.99 19.27-37.83 0-49.82zm-225.55 120.91c-53.02 0-96-42.98-96-96s42.98-96 96-96 96 42.98 96 96-42.98 96-96 96z" fill="#e2e0e0" data-original="#E2E0E0" class=""/><path d="m352 256c0 53.02-42.98 96-96 96-6.86 0-13.55-.72-20-2.09 43.42-9.2 76-47.75 76-93.91s-32.58-84.71-76-93.91c6.45-1.37 13.14-2.09 20-2.09 53.02 0 96 42.98 96 96z" fill="#98d7ce" data-original="#98D7CE" class="active-path" data-old_color="#98d7ce" style="fill:#76DFD0"/><path d="m481.55 231.09-69.27-43.11c-54.01-33.62-117.87-47.97-180.28-43.03 46.44 3.67 92.09 18.01 132.28 43.03l69.27 43.11c19.27 11.99 19.27 37.83 0 49.82l-69.27 43.11c-40.19 25.02-85.84 39.36-132.28 43.03 62.41 4.94 126.27-9.41 180.28-43.03l69.27-43.11c19.27-11.99 19.27-37.83 0-49.82z" fill="#cecccc" data-original="#CECCCC"/><path d="m490.007 217.504-69.27-43.111c-48.764-30.351-105.73-46.393-164.737-46.393s-115.973 16.042-164.737 46.393l-69.27 43.111c-13.771 8.571-21.993 22.962-21.993 38.496s8.222 29.925 21.993 38.496l69.27 43.111c48.764 30.351 105.73 46.393 164.737 46.393s115.973-16.042 164.737-46.393l69.271-43.111c13.77-8.571 21.992-22.962 21.992-38.496s-8.222-29.925-21.993-38.496zm-234.007 118.496c-44.112 0-80-35.888-80-80s35.888-80 80-80 80 35.888 80 80-35.888 80-80 80zm-217.098-68.672c-4.386-2.73-6.902-6.859-6.902-11.328s2.516-8.598 6.901-11.328l69.27-43.111c23.989-14.93 50.218-25.8 77.467-32.629-25.38 20.549-41.638 51.943-41.638 87.068s16.258 66.519 41.638 87.069c-27.249-6.829-53.478-17.699-77.467-32.629zm434.197 0-69.27 43.111c-23.989 14.93-50.217 25.8-77.467 32.629 25.38-20.549 41.638-51.943 41.638-87.068s-16.258-66.519-41.638-87.069c27.249 6.829 53.478 17.699 77.467 32.629l69.269 43.111c4.386 2.73 6.902 6.86 6.902 11.329s-2.516 8.599-6.901 11.328z" data-original="#000000" class="" style="fill:#000000"/><g><path d="m256 288c-17.645 0-32-14.355-32-32s14.355-32 32-32 32 14.355 32 32-14.355 32-32 32zm0-32c0 .014.001.02.001.02z" data-original="#000000" class="" style="fill:#000000"/></g></g></g> </svg>
